<svg width="147" height="75" viewBox="0 0 147 75" fill="none" xmlns="http://www.w3.org/2000/svg">
<path d="M88.7458 28.125L80.6729 28.125C79.6028 28.1239 78.5759 28.5472 77.8174 29.3021C77.059 30.0571 76.6309 31.082 76.627 32.1521V40.225C76.6265 40.7565 76.7308 41.2828 76.9339 41.7739C77.137 42.265 77.435 42.7113 77.8108 43.0871C78.1866 43.4629 78.6328 43.7608 79.124 43.964C79.6151 44.1671 80.1414 44.2714 80.6729 44.2708H88.7458C89.8155 44.2664 90.8399 43.8381 91.5944 43.0797C92.3489 42.3213 92.7719 41.2948 92.7708 40.225V32.1521C92.7713 31.6234 92.6676 31.0997 92.4655 30.6111C92.2635 30.1225 91.967 29.6786 91.5931 29.3048C91.2193 28.9309 90.7753 28.6344 90.2867 28.4323C89.7982 28.2303 89.2745 28.1265 88.7458 28.1271M66.327 28.125H58.2541C57.1845 28.131 56.1608 28.5602 55.4066 29.3187C54.6524 30.0771 54.2291 31.1033 54.2291 32.1729V40.2458C54.2286 40.7746 54.3323 41.2982 54.5344 41.7868C54.7365 42.2754 55.0329 42.7193 55.4068 43.0932C55.7807 43.467 56.2246 43.7635 56.7132 43.9656C57.2018 44.1676 57.7254 44.2714 58.2541 44.2708H66.327C67.3968 44.2719 68.4234 43.8489 69.1818 43.0944C69.9401 42.3399 70.3685 41.3156 70.3729 40.2458V32.1729C70.3734 31.6414 70.2692 31.1151 70.066 30.624C69.8629 30.1329 69.5649 29.6867 69.1891 29.3109C68.8133 28.9351 68.3671 28.6371 67.876 28.4339C67.3849 28.2308 66.8585 28.1265 66.327 28.1271M66.327 5.72916L58.2541 5.72916C57.7254 5.72861 57.2018 5.83235 56.7132 6.03443C56.2246 6.23651 55.7807 6.53297 55.4068 6.90683C55.0329 7.2807 54.7365 7.72463 54.5344 8.21321C54.3323 8.70179 54.2286 9.22543 54.2291 9.75416V17.8271C54.228 18.8968 54.6511 19.9234 55.4055 20.6818C56.16 21.4402 57.1844 21.8685 58.2541 21.8729H66.327C66.8585 21.8735 67.3849 21.7692 67.876 21.5661C68.3671 21.3629 68.8133 21.0649 69.1891 20.6891C69.5649 20.3133 69.8629 19.8671 70.066 19.376C70.2692 18.8849 70.3734 18.3585 70.3729 17.8271V9.75416C70.3685 8.68441 69.9401 7.66004 69.1818 6.90557C68.4234 6.15109 67.3968 5.72805 66.327 5.72916ZM88.7458 5.72916H80.6729C79.6031 5.72805 78.5766 6.15109 77.8182 6.90557C77.0598 7.66004 76.6315 8.68441 76.627 9.75416V17.8271C76.6276 18.8999 77.054 19.9287 77.8127 20.6873C78.5713 21.4459 79.6 21.8724 80.6729 21.8729L88.7458 21.8729C89.8155 21.8685 90.8399 21.4402 91.5944 20.6818C92.3489 19.9234 92.7719 18.8968 92.7708 17.8271V9.75416C92.7713 9.22543 92.6676 8.70179 92.4655 8.21321C92.2635 7.72463 91.967 7.2807 91.5931 6.90683C91.2193 6.53297 90.7753 6.23651 90.2867 6.03443C89.7982 5.83235 89.2745 5.72861 88.7458 5.72916Z" stroke="#6D4FAD" stroke-width="2.625" stroke-linecap="round" stroke-linejoin="round"/>
<path d="M23.4166 61.02H27.6166C28.9366 61.02 30.0933 61.2867 31.0866 61.82C32.08 62.3467 32.8533 63.0967 33.4066 64.07C33.96 65.0433 34.2366 66.1933 34.2366 67.52C34.2366 68.8333 33.96 69.9767 33.4066 70.95C32.8533 71.9167 32.08 72.6667 31.0866 73.2C30.0933 73.7333 28.9366 74 27.6166 74H23.4166V61.02ZM25.7766 63.16V71.88H27.6166C28.4566 71.88 29.18 71.69 29.7866 71.31C30.4 70.93 30.87 70.4133 31.1966 69.76C31.53 69.1 31.6966 68.3533 31.6966 67.52C31.6966 66.6733 31.53 65.9233 31.1966 65.27C30.87 64.6167 30.4 64.1033 29.7866 63.73C29.18 63.35 28.4566 63.16 27.6166 63.16H25.7766ZM43.3271 74L43.0271 71.64V67.74C43.0271 67.06 42.8871 66.5567 42.6071 66.23C42.3338 65.9033 41.8671 65.74 41.2071 65.74C40.8271 65.74 40.4971 65.7967 40.2171 65.91C39.9371 66.0233 39.7204 66.1867 39.5671 66.4C39.4204 66.6067 39.3471 66.86 39.3471 67.16H36.7671C36.7671 66.4267 36.9438 65.83 37.2971 65.37C37.6504 64.9033 38.1571 64.5633 38.8171 64.35C39.4838 64.13 40.2804 64.02 41.2071 64.02C42.0471 64.02 42.7804 64.1567 43.4071 64.43C44.0338 64.6967 44.5204 65.11 44.8671 65.67C45.2138 66.23 45.3871 66.9467 45.3871 67.82V74H43.3271ZM40.1471 74.28C39.3138 74.28 38.6171 74.1367 38.0571 73.85C37.5038 73.5567 37.0871 73.1733 36.8071 72.7C36.5271 72.2267 36.3871 71.7133 36.3871 71.16C36.3871 70.5467 36.5471 70.0333 36.8671 69.62C37.1938 69.2 37.6538 68.8867 38.2471 68.68C38.8404 68.4667 39.5404 68.36 40.3471 68.36C40.8738 68.36 41.3704 68.4 41.8371 68.48C42.3104 68.56 42.7804 68.6667 43.2471 68.8V70.18C42.8804 70.06 42.4804 69.9667 42.0471 69.9C41.6138 69.8333 41.2071 69.8 40.8271 69.8C40.2671 69.8 39.8071 69.9033 39.4471 70.11C39.0871 70.3167 38.9071 70.6667 38.9071 71.16C38.9071 71.52 39.0538 71.83 39.3471 72.09C39.6404 72.35 40.1071 72.48 40.7471 72.48C41.2338 72.48 41.6471 72.3733 41.9871 72.16C42.3271 71.9467 42.5838 71.68 42.7571 71.36C42.9371 71.04 43.0271 70.72 43.0271 70.4H43.5871C43.5871 71.1 43.4571 71.7467 43.1971 72.34C42.9371 72.9267 42.5504 73.3967 42.0371 73.75C41.5304 74.1033 40.9004 74.28 40.1471 74.28ZM52.4663 74.28C51.533 74.28 50.7297 74.1533 50.0563 73.9C49.3897 73.64 48.8763 73.27 48.5163 72.79C48.1563 72.3033 47.973 71.72 47.9663 71.04H50.1463C50.1663 71.52 50.3563 71.87 50.7163 72.09C51.0763 72.31 51.5663 72.42 52.1863 72.42C52.5263 72.42 52.8263 72.37 53.0863 72.27C53.353 72.17 53.5597 72.0333 53.7063 71.86C53.853 71.6867 53.9263 71.4933 53.9263 71.28C53.9263 71.0067 53.8263 70.7933 53.6263 70.64C53.433 70.48 53.1197 70.3333 52.6863 70.2L50.5663 69.44C49.8063 69.1667 49.223 68.8067 48.8163 68.36C48.4097 67.9133 48.2063 67.38 48.2063 66.76C48.2063 65.94 48.5763 65.28 49.3163 64.78C50.063 64.2733 51.0597 64.02 52.3063 64.02C53.5463 64.02 54.503 64.2933 55.1763 64.84C55.8563 65.38 56.2063 66.0667 56.2263 66.9H54.0063C53.973 66.58 53.8197 66.3267 53.5463 66.14C53.273 65.9533 52.8597 65.86 52.3063 65.86C51.8063 65.86 51.413 65.9633 51.1263 66.17C50.8463 66.37 50.7063 66.6067 50.7063 66.88C50.7063 67.34 51.0997 67.6867 51.8863 67.92L54.1863 68.78C54.933 69.0333 55.513 69.36 55.9263 69.76C56.3397 70.16 56.5463 70.6667 56.5463 71.28C56.5463 71.7933 56.373 72.28 56.0263 72.74C55.6863 73.1933 55.2097 73.5633 54.5963 73.85C53.983 74.1367 53.273 74.28 52.4663 74.28ZM66.0532 74V68.32C66.0532 67.6 65.8799 67.0567 65.5332 66.69C65.1865 66.3233 64.7332 66.14 64.1732 66.14C63.6999 66.14 63.2799 66.27 62.9132 66.53C62.5532 66.79 62.2699 67.1833 62.0632 67.71C61.8565 68.23 61.7532 68.88 61.7532 69.66H60.9732C60.9732 68.4 61.1299 67.3533 61.4432 66.52C61.7565 65.68 62.1999 65.0533 62.7732 64.64C63.3465 64.2267 64.0199 64.02 64.7932 64.02C65.5932 64.02 66.2599 64.2 66.7932 64.56C67.3332 64.9133 67.7365 65.4133 68.0032 66.06C68.2765 66.7067 68.4132 67.46 68.4132 68.32V74H66.0532ZM59.3932 74V60.28H61.7532V74H59.3932ZM76.8141 74.28C76.2075 74.28 75.6508 74.11 75.1441 73.77C74.6441 73.43 74.2441 72.9233 73.9441 72.25C73.6441 71.57 73.4941 70.72 73.4941 69.7H74.2141C74.2141 70.1867 74.3241 70.6133 74.5441 70.98C74.7641 71.3467 75.0475 71.6333 75.3941 71.84C75.7408 72.04 76.1008 72.14 76.4741 72.14C76.9341 72.14 77.3441 72.0133 77.7041 71.76C78.0641 71.5067 78.3475 71.1533 78.5541 70.7C78.7675 70.2467 78.8741 69.7133 78.8741 69.1C78.8741 68.5067 78.7708 67.99 78.5641 67.55C78.3575 67.1033 78.0708 66.7567 77.7041 66.51C77.3441 66.2633 76.9275 66.14 76.4541 66.14C76.0608 66.14 75.6941 66.2367 75.3541 66.43C75.0141 66.6167 74.7375 66.89 74.5241 67.25C74.3175 67.6033 74.2141 68.0333 74.2141 68.54H73.4941C73.4941 67.56 73.6341 66.7333 73.9141 66.06C74.2008 65.3867 74.6041 64.88 75.1241 64.54C75.6508 64.1933 76.2741 64.02 76.9941 64.02C77.7808 64.02 78.4941 64.23 79.1341 64.65C79.7808 65.0633 80.2941 65.6533 80.6741 66.42C81.0608 67.18 81.2541 68.0733 81.2541 69.1C81.2541 70.14 81.0541 71.05 80.6541 71.83C80.2608 72.6033 79.7275 73.2067 79.0541 73.64C78.3808 74.0667 77.6341 74.28 76.8141 74.28ZM71.8541 74V60.28H74.2141V71.6L73.3941 74H71.8541ZM87.9593 74.28C87.0726 74.28 86.2693 74.09 85.5493 73.71C84.836 73.33 84.2693 72.7633 83.8493 72.01C83.4293 71.25 83.2193 70.3 83.2193 69.16C83.2193 68 83.4293 67.04 83.8493 66.28C84.2693 65.52 84.836 64.9533 85.5493 64.58C86.2693 64.2067 87.0726 64.02 87.9593 64.02C88.8326 64.02 89.6226 64.2067 90.3293 64.58C91.0426 64.9533 91.6093 65.52 92.0293 66.28C92.4493 67.04 92.6593 68 92.6593 69.16C92.6593 70.3 92.4493 71.25 92.0293 72.01C91.6093 72.7633 91.0426 73.33 90.3293 73.71C89.6226 74.09 88.8326 74.28 87.9593 74.28ZM87.8793 72.22C88.346 72.22 88.7593 72.1067 89.1193 71.88C89.486 71.6467 89.7726 71.3033 89.9793 70.85C90.1926 70.3967 90.2993 69.8333 90.2993 69.16C90.2993 68.1333 90.096 67.36 89.6893 66.84C89.2893 66.32 88.7393 66.06 88.0393 66.06C87.566 66.06 87.146 66.1767 86.7793 66.41C86.4126 66.6367 86.1226 66.98 85.9093 67.44C85.7026 67.9 85.5993 68.4733 85.5993 69.16C85.5993 70.1733 85.8026 70.9367 86.2093 71.45C86.6226 71.9633 87.1793 72.22 87.8793 72.22ZM101.647 74L101.347 71.64V67.74C101.347 67.06 101.207 66.5567 100.927 66.23C100.654 65.9033 100.187 65.74 99.5274 65.74C99.1474 65.74 98.8174 65.7967 98.5374 65.91C98.2574 66.0233 98.0408 66.1867 97.8874 66.4C97.7408 66.6067 97.6674 66.86 97.6674 67.16H95.0874C95.0874 66.4267 95.2641 65.83 95.6174 65.37C95.9708 64.9033 96.4774 64.5633 97.1374 64.35C97.8041 64.13 98.6008 64.02 99.5274 64.02C100.367 64.02 101.101 64.1567 101.727 64.43C102.354 64.6967 102.841 65.11 103.187 65.67C103.534 66.23 103.707 66.9467 103.707 67.82V74H101.647ZM98.4674 74.28C97.6341 74.28 96.9374 74.1367 96.3774 73.85C95.8241 73.5567 95.4074 73.1733 95.1274 72.7C94.8474 72.2267 94.7074 71.7133 94.7074 71.16C94.7074 70.5467 94.8674 70.0333 95.1874 69.62C95.5141 69.2 95.9741 68.8867 96.5674 68.68C97.1608 68.4667 97.8608 68.36 98.6674 68.36C99.1941 68.36 99.6908 68.4 100.157 68.48C100.631 68.56 101.101 68.6667 101.567 68.8V70.18C101.201 70.06 100.801 69.9667 100.367 69.9C99.9341 69.8333 99.5274 69.8 99.1474 69.8C98.5874 69.8 98.1274 69.9033 97.7674 70.11C97.4074 70.3167 97.2274 70.6667 97.2274 71.16C97.2274 71.52 97.3741 71.83 97.6674 72.09C97.9608 72.35 98.4274 72.48 99.0674 72.48C99.5541 72.48 99.9674 72.3733 100.307 72.16C100.647 71.9467 100.904 71.68 101.077 71.36C101.257 71.04 101.347 70.72 101.347 70.4H101.907C101.907 71.1 101.777 71.7467 101.517 72.34C101.257 72.9267 100.871 73.3967 100.357 73.75C99.8508 74.1033 99.2208 74.28 98.4674 74.28ZM107.167 74V64.26H109.527V74H107.167ZM108.947 69.74C108.947 68.4667 109.09 67.4133 109.377 66.58C109.663 65.7467 110.047 65.13 110.527 64.73C111.013 64.3233 111.553 64.12 112.147 64.12C112.307 64.12 112.457 64.13 112.597 64.15C112.743 64.17 112.887 64.2 113.027 64.24L112.987 66.6C112.813 66.56 112.627 66.5267 112.427 66.5C112.227 66.4733 112.047 66.46 111.887 66.46C111.367 66.46 110.93 66.5867 110.577 66.84C110.23 67.0867 109.967 67.4533 109.787 67.94C109.613 68.4267 109.527 69.0267 109.527 69.74H108.947ZM118.598 74.28C117.785 74.28 117.042 74.0667 116.368 73.64C115.702 73.2067 115.168 72.6033 114.768 71.83C114.375 71.05 114.178 70.14 114.178 69.1C114.178 68.0733 114.368 67.18 114.748 66.42C115.135 65.6533 115.648 65.0633 116.288 64.65C116.935 64.23 117.652 64.02 118.438 64.02C119.158 64.02 119.782 64.1933 120.308 64.54C120.835 64.88 121.238 65.3867 121.518 66.06C121.798 66.7333 121.938 67.56 121.938 68.54H121.198C121.198 68.0333 121.095 67.6033 120.888 67.25C120.682 66.89 120.408 66.6167 120.068 66.43C119.735 66.2367 119.372 66.14 118.978 66.14C118.505 66.14 118.085 66.2633 117.718 66.51C117.358 66.7567 117.075 67.1033 116.868 67.55C116.662 67.99 116.558 68.5067 116.558 69.1C116.558 69.7133 116.662 70.2467 116.868 70.7C117.075 71.1533 117.358 71.5067 117.718 71.76C118.085 72.0133 118.498 72.14 118.958 72.14C119.332 72.14 119.688 72.04 120.028 71.84C120.375 71.6333 120.655 71.3467 120.868 70.98C121.088 70.6133 121.198 70.1867 121.198 69.7H121.938C121.938 70.72 121.785 71.57 121.478 72.25C121.178 72.9233 120.775 73.43 120.268 73.77C119.762 74.11 119.205 74.28 118.598 74.28ZM121.638 74L121.198 71.6V60.28H123.578V74H121.638Z" fill="#6D4FAD"/>
</svg>
