<svg width="50" height="50" viewBox="0 0 50 50" fill="none" xmlns="http://www.w3.org/2000/svg">
<path d="M49.5137 20.1038H47.5V20H25V30H39.1288C37.0675 35.8213 31.5287 40 25 40C16.7162 40 10 33.2837 10 25C10 16.7162 16.7162 10 25 10C28.8237 10 32.3025 11.4425 34.9513 13.7987L42.0225 6.7275C37.5575 2.56625 31.585 0 25 0C11.1938 0 0 11.1938 0 25C0 38.8063 11.1938 50 25 50C38.8063 50 50 38.8063 50 25C50 23.3237 49.8275 21.6875 49.5137 20.1038Z" fill="#FFC107"/>
<path d="M2.88251 13.3637L11.0963 19.3875C13.3188 13.885 18.7013 10 25 10C28.8238 10 32.3025 11.4425 34.9513 13.7987L42.0225 6.7275C37.5575 2.56625 31.585 0 25 0C15.3975 0 7.07001 5.42125 2.88251 13.3637Z" fill="#FF3D00"/>
<path d="M25 50C31.4575 50 37.325 47.5288 41.7613 43.51L34.0238 36.9625C31.5138 38.8638 28.3938 40 25 40C18.4975 40 12.9763 35.8538 10.8963 30.0675L2.74377 36.3488C6.88127 44.445 15.2838 50 25 50Z" fill="#4CAF50"/>
<path d="M49.5138 20.1038H47.5V20H25V30H39.1288C38.1388 32.7962 36.34 35.2075 34.02 36.9637C34.0212 36.9625 34.0225 36.9625 34.0238 36.9612L41.7612 43.5087C41.2138 44.0062 50 37.5 50 25C50 23.3237 49.8275 21.6875 49.5138 20.1038Z" fill="#1976D2"/>
</svg>
