<svg width="104" height="104" viewBox="0 0 104 104" fill="none" xmlns="http://www.w3.org/2000/svg">
<circle cx="51.5512" cy="51.5512" r="51.5512" fill="#AC99D4"/>
<path fill-rule="evenodd" clip-rule="evenodd" d="M40.4077 36.919C40.4077 33.8807 41.6146 30.9669 43.763 28.8185C45.9114 26.6701 48.8252 25.4632 51.8635 25.4632C54.9018 25.4632 57.8156 26.6701 59.964 28.8185C62.1124 30.9669 63.3193 33.8807 63.3193 36.919C63.3193 39.9573 62.1124 42.8711 59.964 45.0195C57.8156 47.1679 54.9018 48.3748 51.8635 48.3748C48.8252 48.3748 45.9114 47.1679 43.763 45.0195C41.6146 42.8711 40.4077 39.9573 40.4077 36.919ZM40.4077 54.1027C36.6098 54.1027 32.9675 55.6114 30.2821 58.2969C27.5966 60.9824 26.0879 64.6247 26.0879 68.4225C26.0879 70.7012 26.9931 72.8866 28.6044 74.4979C30.2157 76.1092 32.4011 77.0144 34.6798 77.0144H69.0472C71.326 77.0144 73.5113 76.1092 75.1226 74.4979C76.7339 72.8866 77.6391 70.7012 77.6391 68.4225C77.6391 64.6247 76.1304 60.9824 73.4449 58.2969C70.7595 55.6114 67.1172 54.1027 63.3193 54.1027H40.4077Z" fill="white"/>
</svg>
